<svg width="130" height="16" viewBox="0 0 130 16" fill="none" xmlns="http://www.w3.org/2000/svg">
<path d="M77.5715 0.959297V15.7333H73.8503V0.959297H77.5715Z" fill="#4F5EEE"/>
<path d="M86.5 0.960022V9.49999H82.7789V0.960022H86.5Z" fill="#4F5EEE"/>
<path d="M108.134 0.746689C109.942 0.746689 111.395 1.30669 112.493 2.42669C113.61 3.52891 114.168 5.07558 114.168 7.06669V15.7334H110.447V7.57336C110.447 6.4178 110.154 5.5378 109.57 4.93336C108.985 4.31113 108.187 4.00002 107.177 4.00002C106.167 4.00002 105.361 4.31113 104.759 4.93336C104.174 5.5378 103.882 6.4178 103.882 7.57336V15.7334H100.16V7.57336C100.16 6.4178 99.868 5.5378 99.2833 4.93336C98.6985 4.31113 97.9012 4.00002 96.8911 4.00002C95.8634 4.00002 95.0483 4.31113 94.4458 4.93336C93.8611 5.5378 93.5687 6.4178 93.5687 7.57336V15.7334H89.8475V0.960022H93.5687V2.74669C94.0471 2.12447 94.6584 1.63558 95.4027 1.28002C96.1646 0.924467 96.9974 0.746689 97.9012 0.746689C99.0529 0.746689 100.081 0.995578 100.984 1.49336C101.888 1.97336 102.588 2.66669 103.084 3.57336C103.563 2.72002 104.254 2.03558 105.157 1.52002C106.079 1.00447 107.071 0.746689 108.134 0.746689Z" fill="#4F5EEE"/>
<path d="M122.005 15.9734C120.8 15.9734 119.719 15.76 118.762 15.3334C117.805 14.8889 117.043 14.2934 116.476 13.5467C115.927 12.8 115.626 11.9734 115.573 11.0667H119.32C119.391 11.6356 119.666 12.1067 120.144 12.48C120.64 12.8534 121.252 13.04 121.978 13.04C122.687 13.04 123.236 12.8978 123.626 12.6134C124.034 12.3289 124.238 11.9645 124.238 11.52C124.238 11.04 123.99 10.6845 123.493 10.4534C123.015 10.2045 122.244 9.9378 121.181 9.65336C120.082 9.38669 119.179 9.11114 118.47 8.82669C117.779 8.54225 117.176 8.10669 116.662 7.52002C116.166 6.93336 115.918 6.14225 115.918 5.14669C115.918 4.32891 116.149 3.58224 116.609 2.90669C117.088 2.23113 117.761 1.6978 118.629 1.30669C119.515 0.91558 120.552 0.720024 121.739 0.720024C123.493 0.720024 124.893 1.16447 125.939 2.05336C126.984 2.92447 127.56 4.10669 127.666 5.60003H124.105C124.052 5.01336 123.803 4.55114 123.36 4.21336C122.935 3.8578 122.359 3.68002 121.633 3.68002C120.959 3.68002 120.437 3.80447 120.065 4.05336C119.71 4.30225 119.533 4.64891 119.533 5.09336C119.533 5.59113 119.781 5.97336 120.277 6.24003C120.773 6.48891 121.544 6.74669 122.59 7.01336C123.653 7.28002 124.53 7.55558 125.221 7.84002C125.912 8.12447 126.506 8.56891 127.002 9.17336C127.516 9.76002 127.782 10.5422 127.799 11.52C127.799 12.3734 127.56 13.1378 127.082 13.8134C126.621 14.4889 125.948 15.0222 125.062 15.4134C124.193 15.7867 123.174 15.9734 122.005 15.9734Z" fill="#4F5EEE"/>
<path d="M87.5 12.1898V15.7334L73.8503 15.7333V12.1898L87.5 12.1898Z" fill="#4F5EEE"/>
<path d="M14.6545 8.02654C14.6545 8.55988 14.619 9.03988 14.5481 9.46654H3.7834C3.872 10.5332 4.24411 11.3688 4.89974 11.9732C5.55537 12.5777 6.36162 12.8799 7.31848 12.8799C8.70062 12.8799 9.68407 12.2843 10.2688 11.0932H14.2823C13.8571 12.5154 13.042 13.6888 11.837 14.6132C10.6321 15.5199 9.15248 15.9732 7.39822 15.9732C5.98064 15.9732 4.70482 15.6621 3.57076 15.0399C2.45442 14.3999 1.57729 13.5021 0.93938 12.3465C0.319189 11.191 0.00909424 9.85765 0.00909424 8.34654C0.00909424 6.81765 0.319189 5.47543 0.93938 4.31988C1.55957 3.16432 2.42784 2.27543 3.54418 1.65321C4.66052 1.03099 5.9452 0.719876 7.39822 0.719876C8.79808 0.719876 10.0473 1.0221 11.1459 1.62654C12.2623 2.23099 13.1217 3.09321 13.7242 4.21321C14.3444 5.31543 14.6545 6.58654 14.6545 8.02654ZM10.8004 6.95988C10.7827 5.99988 10.4372 5.23543 9.76381 4.66654C9.09046 4.07988 8.26649 3.78654 7.2919 3.78654C6.37048 3.78654 5.59081 4.07099 4.9529 4.63988C4.33271 5.19099 3.95173 5.96432 3.80998 6.95988H10.8004Z" fill="#071730"/>
<path d="M24.2015 0.746543C25.9558 0.746543 27.3733 1.30654 28.4542 2.42654C29.5351 3.52877 30.0756 5.07543 30.0756 7.06654V15.7332H26.3545V7.57321C26.3545 6.39988 26.0621 5.5021 25.4773 4.87988C24.8926 4.23988 24.0952 3.91988 23.0852 3.91988C22.0574 3.91988 21.2423 4.23988 20.6398 4.87988C20.0551 5.5021 19.7627 6.39988 19.7627 7.57321V15.7332H16.0416V0.959876H19.7627V2.79988C20.2589 2.15988 20.8879 1.6621 21.6499 1.30654C22.4295 0.933209 23.2801 0.746543 24.2015 0.746543Z" fill="#071730"/>
<path d="M38.4251 12.2932L42.1463 0.959876H46.1066L40.6578 15.7332H36.1393L30.717 0.959876H34.704L38.4251 12.2932Z" fill="#071730"/>
<path d="M60.5562 8.02654C60.5562 8.55988 60.5207 9.03988 60.4498 9.46654H49.6851C49.7737 10.5332 50.1458 11.3688 50.8015 11.9732C51.4571 12.5777 52.2633 12.8799 53.2202 12.8799C54.6023 12.8799 55.5858 12.2843 56.1705 11.0932H60.1841C59.7588 12.5154 58.9437 13.6888 57.7387 14.6132C56.5338 15.5199 55.0542 15.9732 53.2999 15.9732C51.8824 15.9732 50.6065 15.6621 49.4725 15.0399C48.3561 14.3999 47.479 13.5021 46.8411 12.3465C46.2209 11.191 45.9108 9.85765 45.9108 8.34654C45.9108 6.81765 46.2209 5.47543 46.8411 4.31988C47.4613 3.16432 48.3295 2.27543 49.4459 1.65321C50.5622 1.03099 51.8469 0.719876 53.2999 0.719876C54.6998 0.719876 55.949 1.0221 57.0477 1.62654C58.164 2.23099 59.0234 3.09321 59.6259 4.21321C60.2461 5.31543 60.5562 6.58654 60.5562 8.02654ZM56.7021 6.95988C56.6844 5.99988 56.3389 5.23543 55.6655 4.66654C54.9922 4.07988 54.1682 3.78654 53.1936 3.78654C52.2722 3.78654 51.4925 4.07099 50.8546 4.63988C50.2344 5.19099 49.8534 5.96432 49.7117 6.95988H56.7021Z" fill="#071730"/>
<path d="M65.9039 3.25321C66.3823 2.47099 67.0025 1.85765 67.7645 1.41321C68.5441 0.968766 69.4301 0.746543 70.4224 0.746543V4.66654H69.439C68.2695 4.66654 67.3835 4.9421 66.781 5.49321C66.1963 6.04432 65.9039 7.00432 65.9039 8.37321V15.7332H62.1827V0.959876H65.9039V3.25321Z" fill="#071730"/>
</svg>
