<svg width="24" height="195" viewBox="0 0 24 195" fill="none" xmlns="http://www.w3.org/2000/svg">
<path d="M1.43899 78.6429L23.6 78.6429L23.6 84.2246L1.43899 84.2246L1.43899 78.6429Z" fill="#4F5EEE"/>
<path d="M1.44007 65.2501L14.25 65.2501L14.25 70.8318L1.44008 70.8318L1.44007 65.2501Z" fill="#4F5EEE"/>
<path d="M1.12007 32.7987C1.12007 30.0876 1.96008 27.908 3.64008 26.2601C5.29341 24.5856 7.61341 23.7483 10.6001 23.7483L23.6001 23.7483L23.6001 29.33L11.3601 29.33C9.62674 29.33 8.30674 29.7686 7.40008 30.6457C6.46674 31.5228 6.00008 32.7189 6.00008 34.234C6.00008 35.749 6.46674 36.9584 7.40008 37.8621C8.30674 38.7392 9.62674 39.1778 11.3601 39.1778L23.6001 39.1778L23.6001 44.7595L11.3601 44.7595C9.62674 44.7595 8.30674 45.1981 7.40008 46.0752C6.46674 46.9523 6.00008 48.1484 6.00008 49.6634C6.00008 51.205 6.46674 52.4277 7.40008 53.3314C8.30675 54.2085 9.62674 54.6471 11.3601 54.6471L23.6001 54.6471L23.6001 60.2288L1.44007 60.2288L1.44007 54.6471L4.12008 54.6471C3.18675 53.9295 2.45341 53.0125 1.92007 51.8961C1.38674 50.7532 1.12007 49.5039 1.12007 48.1484C1.12007 46.4207 1.49341 44.8791 2.24007 43.5235C2.96008 42.168 4.00008 41.1181 5.36008 40.3739C4.08008 39.6562 3.05341 38.6196 2.28007 37.264C1.50674 35.8819 1.12007 34.3934 1.12007 32.7987Z" fill="#4F5EEE"/>
<path d="M23.9601 11.9928C23.9601 13.8002 23.6401 15.4215 23.0001 16.8568C22.3334 18.2921 21.4401 19.4351 20.3201 20.2856C19.2001 21.1096 17.9601 21.5614 16.6001 21.6412L16.6001 16.0196C17.4534 15.9133 18.1601 15.5013 18.7201 14.7836C19.2801 14.0394 19.5601 13.1224 19.5601 12.0326C19.5601 10.9694 19.3467 10.1455 18.9201 9.56073C18.4934 8.9494 17.9467 8.64374 17.2801 8.64374C16.5601 8.64374 16.0267 9.01585 15.6801 9.76008C15.3067 10.4777 14.9067 11.6339 14.4801 13.2287C14.0801 14.8767 13.6667 16.2322 13.2401 17.2954C12.8134 18.332 12.1601 19.2357 11.2801 20.0065C10.4001 20.7507 9.21341 21.1229 7.72008 21.1229C6.49341 21.1229 5.37341 20.7773 4.36007 20.0863C3.34674 19.3686 2.54674 18.3586 1.96008 17.0562C1.37341 15.7272 1.08008 14.1723 1.08007 12.3915C1.08007 9.76008 1.74674 7.66029 3.08008 6.0921C4.38674 4.5239 6.16008 3.66007 8.40008 3.50059L8.40008 8.84309C7.52008 8.92282 6.82674 9.29494 6.32008 9.95943C5.78674 10.5973 5.52008 11.4612 5.52008 12.5509C5.52008 13.561 5.70674 14.3451 6.08008 14.9032C6.45341 15.4348 6.97341 15.7006 7.64008 15.7006C8.38674 15.7006 8.96008 15.3285 9.36008 14.5843C9.73341 13.84 10.1201 12.6838 10.5201 11.1156C10.9201 9.52087 11.3334 8.20518 11.7601 7.16857C12.1867 6.13197 12.8534 5.24155 13.7601 4.49732C14.6401 3.72651 15.8134 3.32782 17.2801 3.30124C18.5601 3.30124 19.7067 3.66007 20.7201 4.37772C21.7334 5.06879 22.5334 6.07881 23.1201 7.40778C23.6801 8.71019 23.9601 10.2385 23.9601 11.9928Z" fill="#4F5EEE"/>
<path d="M18.2848 63.7501L23.6001 63.7501L23.6 84.2246L18.2847 84.2246L18.2848 63.7501Z" fill="#4F5EEE"/>
<path d="M12.0401 173.018C12.8401 173.018 13.5601 173.071 14.2001 173.178L14.2001 189.325C15.8001 189.192 17.0534 188.634 17.9601 187.65C18.8668 186.667 19.3201 185.458 19.3201 184.022C19.3201 181.949 18.4267 180.474 16.6401 179.597L16.6401 173.576C18.7734 174.214 20.5334 175.437 21.9201 177.244C23.2801 179.052 23.9601 181.271 23.9601 183.903C23.9601 186.029 23.4934 187.943 22.5601 189.644C21.6001 191.318 20.2534 192.634 18.5201 193.591C16.7868 194.521 14.7868 194.986 12.5201 194.986C10.2267 194.986 8.21341 194.521 6.48008 193.591C4.74675 192.661 3.41341 191.358 2.48008 189.684C1.54675 188.009 1.08008 186.082 1.08008 183.903C1.08008 181.803 1.53341 179.929 2.44008 178.281C3.34674 176.607 4.64008 175.317 6.32008 174.414C7.97341 173.483 9.88008 173.018 12.0401 173.018ZM10.4401 178.799C9.00008 178.826 7.85341 179.344 7.00008 180.354C6.12008 181.364 5.68008 182.6 5.68008 184.062C5.68008 185.444 6.10675 186.614 6.96008 187.571C7.78675 188.501 8.94675 189.072 10.4401 189.285L10.4401 178.799Z" fill="#071730"/>
<path d="M1.12008 158.698C1.12008 156.066 1.96008 153.94 3.64008 152.319C5.29341 150.697 7.61341 149.887 10.6001 149.887L23.6001 149.887L23.6001 155.468L11.3601 155.468C9.60008 155.468 8.25341 155.907 7.32008 156.784C6.36008 157.661 5.88008 158.857 5.88008 160.372C5.88008 161.914 6.36008 163.136 7.32008 164.04C8.25341 164.917 9.60008 165.356 11.3601 165.356L23.6001 165.356L23.6001 170.938L1.44008 170.938L1.44008 165.356L4.20008 165.356C3.24008 164.612 2.49341 163.668 1.96008 162.525C1.40008 161.356 1.12008 160.08 1.12008 158.698Z" fill="#071730"/>
<path d="M18.4401 137.362L1.44008 131.781L1.44008 125.84L23.6001 134.013L23.6001 140.791L1.44008 148.924L1.44008 142.944L18.4401 137.362Z" fill="#071730"/>
<path d="M12.0401 104.166C12.8401 104.166 13.5601 104.219 14.2001 104.325L14.2001 120.472C15.8001 120.339 17.0534 119.781 17.9601 118.798C18.8667 117.814 19.3201 116.605 19.3201 115.17C19.3201 113.096 18.4267 111.621 16.6401 110.744L16.6401 104.724C18.7734 105.362 20.5334 106.584 21.9201 108.392C23.2801 110.199 23.9601 112.419 23.9601 115.05C23.9601 117.176 23.4934 119.09 22.5601 120.791C21.6001 122.466 20.2534 123.781 18.5201 124.738C16.7867 125.669 14.7867 126.134 12.5201 126.134C10.2267 126.134 8.21341 125.669 6.48008 124.738C4.74674 123.808 3.41341 122.506 2.48008 120.831C1.54674 119.157 1.08007 117.23 1.08007 115.05C1.08007 112.95 1.53341 111.076 2.44007 109.428C3.34674 107.754 4.64007 106.465 6.32008 105.561C7.97341 104.631 9.88008 104.166 12.0401 104.166ZM10.4401 109.947C9.00008 109.973 7.85341 110.492 7.00008 111.502C6.12008 112.512 5.68008 113.748 5.68008 115.21C5.68008 116.592 6.10674 117.761 6.96008 118.718C7.78674 119.648 8.94674 120.22 10.4401 120.432L10.4401 109.947Z" fill="#071730"/>
<path d="M4.88007 96.1441C3.70674 95.4265 2.78674 94.4962 2.12008 93.3533C1.45341 92.1838 1.12007 90.8548 1.12007 89.3663L7.00008 89.3663L7.00008 90.8415C7.00008 92.5958 7.41341 93.9247 8.24008 94.8284C9.06674 95.7056 10.5067 96.1441 12.5601 96.1441L23.6001 96.1441L23.6001 101.726L1.44007 101.726L1.44007 96.1441L4.88007 96.1441Z" fill="#071730"/>
</svg>
